# xmcd
#
# Track frame offsets: 
#        150
#        6415
#        24922
#        46122
#        49370
#        66547
#        89417
#        114182
#        142742
#        147937
#        166212
#        190780
#        215495
#        220325
#        238740
#        260270
#        261050
#        279395
#
# Disc length: 4258 seconds
#
# Revision: 6
# Processed by: cddbd v1.5.2PL0 Copyright (c) Steve Scherf et al.
# Submitted via: ExactAudioCopy v1.3
#
DISCID=0310a012
DTITLE=Solo - Solo
DYEAR=1995
DGENRE=R&B
TTITLE0=What A Wonderful World
TTITLE1=Back 2 Da Street
TTITLE2=Blowin' My Mind
TTITLE3=Cupid
TTITLE4=Heaven
TTITLE5=Xxtra
TTITLE6=It's Such A Shame
TTITLE7=He's Not Good Enough
TTITLE8=Another Saturday - Everybody Loves To Cha Cha Cha
TTITLE9=Where Do U Want Me To Put It
TTITLE10=Keep It Right Here
TTITLE11=I'm Sorry
TTITLE12=Under The Boardwalk
TTITLE13=In Bed
TTITLE14=(Last Night I Made Love) Like Never Before
TTITLE15=Prince Street
TTITLE16=Holdin' On
TTITLE17=A Change Is Gonna Come
EXTD=
EXTT0=
EXTT1=
EXTT2=
EXTT3=
EXTT4=
EXTT5=
EXTT6=
EXTT7=
EXTT8=
EXTT9=
EXTT10=
EXTT11=
EXTT12=
EXTT13=
EXTT14=
EXTT15=
EXTT16=
EXTT17=
PLAYORDER=
